<?xml version="1.0" encoding="UTF-8"?>
<svg version="1.1" xmlns="http://www.w3.org/2000/svg" width="500" height="500">
<path d="M0 0 C0.97012024 -0.0071553 1.94024048 -0.01431061 2.9397583 -0.02168274 C4.00782715 -0.02437164 5.075896 -0.02706055 6.17633057 -0.02983093 C7.85943329 -0.03968773 7.85943329 -0.03968773 9.57653809 -0.04974365 C13.30283672 -0.06951097 17.02909499 -0.08114693 20.75543213 -0.09111023 C22.02588631 -0.09518576 23.29634048 -0.09926128 24.60529327 -0.10346031 C30.6355728 -0.12218142 36.66582777 -0.13674369 42.69612861 -0.14507228 C49.65329456 -0.15483986 56.61014193 -0.18114553 63.56719565 -0.22157317 C69.59533385 -0.25539838 75.62331769 -0.26721952 81.65155792 -0.27127647 C84.21442067 -0.27615349 86.77727975 -0.28779897 89.34008026 -0.30631447 C92.926381 -0.33061373 96.51184802 -0.32975718 100.09820557 -0.32279968 C101.15817749 -0.33560974 102.21814941 -0.3484198 103.3102417 -0.36161804 C109.3426895 -0.31893592 112.80061124 0.13149025 117.39605713 4.14717102 C121.23988358 8.40654627 122.5239165 11.38700199 122.50958252 17.07759094 C122.50950699 18.07840195 122.50943146 19.07921295 122.50935364 20.11035156 C122.50419235 21.18855667 122.49903107 22.26676178 122.49371338 23.37763977 C122.49159096 25.03597588 122.49159096 25.03597588 122.48942566 26.72781372 C122.48382227 30.26346019 122.47126917 33.79904364 122.45855713 37.33467102 C122.45354257 39.7298524 122.44897958 42.12503477 122.44488525 44.5202179 C122.43385174 50.39589049 122.41711029 56.27152625 122.39605713 62.14717102 C119.4130208 60.7033858 117.01118129 59.15801507 114.46246338 57.02998352 C113.73092041 56.42283508 112.99937744 55.81568665 112.2456665 55.19013977 C111.49092041 54.55721008 110.73617432 53.9242804 109.95855713 53.27217102 C107.74837762 51.43193572 105.53758107 49.5924471 103.32623291 47.75361633 C101.73152775 46.42637627 100.13959277 45.09580853 98.54840088 43.76435852 C94.64030494 40.82796702 91.16018568 40.74343131 86.39605713 41.14717102 C83.21026346 42.82656871 83.21026346 42.82656871 80.39605713 45.14717102 C79.44730713 45.88967102 78.49855713 46.63217102 77.52105713 47.39717102 C76.46918213 48.26342102 76.46918213 48.26342102 75.39605713 49.14717102 C74.57814697 48.33312805 74.57814697 48.33312805 73.74371338 47.50263977 C67.95256571 42.00847404 63.04751056 38.34083453 54.88824463 38.06123352 C46.82720341 38.52961206 41.01197863 41.10103299 35.52105713 47.02217102 C31.05512826 52.55626055 29.90800273 57.53059869 30.08746338 64.56123352 C30.97178966 71.97166384 34.48062328 76.8466541 40.10308838 81.54170227 C41.39605713 83.14717102 41.39605713 83.14717102 41.25152588 85.17451477 C40.39605713 87.14717102 40.39605713 87.14717102 37.89605713 89.89717102 C34.72002988 93.54406278 34.39605713 96.33540792 34.39605713 101.14717102 C36.39114062 105.15029309 39.11002257 108.20206251 42.14605713 111.45967102 C45.80481321 115.41753709 49.40373568 119.40914713 52.92340088 123.49092102 C54.35953832 125.10609947 55.8520549 126.63543153 57.39605713 128.14717102 C57.06605713 129.13717102 56.73605713 130.12717102 56.39605713 131.14717102 C48.9547546 131.21688531 41.51352327 131.27009048 34.0719595 131.30260754 C30.61599067 131.31821939 27.16024637 131.33937458 23.70440674 131.37348938 C19.72534941 131.41252041 15.74638091 131.42691734 11.76715088 131.44013977 C9.91832558 131.46336555 9.91832558 131.46336555 8.03215027 131.48706055 C0.06640483 131.48861566 -5.22850179 131.07255329 -11.41644287 125.70967102 C-14.54926926 122.03978867 -15.85071613 119.44309199 -15.87136841 114.60643005 C-15.87989838 113.70087372 -15.88842834 112.79531738 -15.8972168 111.86231995 C-15.89631042 110.87624756 -15.89540405 109.89017517 -15.89447021 108.8742218 C-15.90118744 107.82988983 -15.90790466 106.78555786 -15.91482544 105.70957947 C-15.93383883 102.25383255 -15.93773132 98.7982795 -15.93988037 95.34248352 C-15.94630586 92.94118672 -15.95303403 90.53989072 -15.96005249 88.13859558 C-15.97203355 83.1031869 -15.97573244 78.06784686 -15.97454834 73.03242493 C-15.97434508 66.58045676 -16.00165101 60.12892873 -16.03609276 53.6770649 C-16.05833094 48.71680174 -16.06238682 43.75664503 -16.06132889 38.79633713 C-16.06368934 36.41769264 -16.07253774 34.03904542 -16.08799362 31.66044998 C-16.10759089 28.33295624 -16.10183949 25.00641846 -16.08978271 21.6789093 C-16.10102173 20.69688538 -16.11226074 19.71486145 -16.12384033 18.70307922 C-16.07134845 13.00150278 -15.46292413 9.64386084 -11.60394287 5.14717102 C-7.60147225 1.62118499 -5.29903225 0.02677424 0 0 Z M5.39605713 17.14717102 C3.19463381 19.58624163 3.19463381 19.58624163 1.39605713 22.14717102 C1.9431444 24.68461417 1.9431444 24.68461417 3.39605713 27.14717102 C6.29956837 28.31165983 6.29956837 28.31165983 9.39605713 28.14717102 C11.39605713 27.14717102 11.39605713 27.14717102 12.39605713 25.14717102 C12.97939046 22.64717102 12.97939046 22.64717102 12.39605713 20.14717102 C10.66567641 18.2451536 10.66567641 18.2451536 8.39605713 17.14717102 C7.40605713 17.14717102 6.41605713 17.14717102 5.39605713 17.14717102 Z " fill="#FDBD5A" transform="translate(196.60394287109375,136.8528289794922)"/>
<path d="M0 0 C2.64 0 5.28 0 8 0 C8.33 0.66 8.66 1.32 9 2 C9.99 1.34 10.98 0.68 12 0 C16.97455239 -0.4606067 20.06753613 -0.16781812 24 3 C27.39662345 6.86512324 27.45412483 10.62567897 27.28515625 15.5625 C26.7498137 20.13857882 25.26686545 22.94427879 21.75 25.875 C18.29009627 27.29041516 15.7069501 27.34323612 12 27 C11.01 26.34 10.02 25.68 9 25 C8.67 29.62 8.34 34.24 8 39 C5.36 39 2.72 39 0 39 C0 26.13 0 13.26 0 0 Z M9.125 9.6875 C7.69875612 12.61922354 7.95769611 13.95326554 9 17 C9.66 17.66 10.32 18.32 11 19 C14.06991681 18.83557723 14.06991681 18.83557723 17 18 C18.38125018 15.23749964 18.19079306 13.05268901 18 10 C16.17528109 7.78103864 16.17528109 7.78103864 13.5625 7.625 C10.90483483 7.77213053 10.90483483 7.77213053 9.125 9.6875 Z " fill="#010101" transform="translate(240,296)"/>
<path d="M0 0 C2.40367591 2.77925027 2.75310468 4.69136858 3 8.3125 C0.03 8.3125 -2.94 8.3125 -6 8.3125 C-6.33 7.3225 -6.66 6.3325 -7 5.3125 C-8.65 5.3125 -10.3 5.3125 -12 5.3125 C-10.98205762 8.06727063 -10.38543108 9.11614832 -7.72265625 10.47265625 C-6.84480469 10.77042969 -5.96695313 11.06820313 -5.0625 11.375 C0.86539948 13.40916875 0.86539948 13.40916875 3 16.3125 C3.68880655 19.37768917 3.58893897 22.2327274 3 25.3125 C0.47031526 28.59425318 -1.07731331 30.00493777 -5 31.3125 C-10.44613611 31.73143355 -14.24349417 31.05663798 -19 28.3125 C-22 23.57056452 -22 23.57056452 -22 20.3125 C-20.39667209 20.23128076 -18.79215974 20.17320866 -17.1875 20.125 C-15.84751953 20.07279297 -15.84751953 20.07279297 -14.48046875 20.01953125 C-11.51889779 20.3693231 -10.95250396 21.18096989 -9 23.3125 C-8.01 23.3125 -7.02 23.3125 -6 23.3125 C-7.01794238 20.55772937 -7.61456892 19.50885168 -10.27734375 18.15234375 C-11.15519531 17.85457031 -12.03304687 17.55679687 -12.9375 17.25 C-18.86539948 15.21583125 -18.86539948 15.21583125 -21 12.3125 C-21.68897966 9.24654053 -21.5838056 6.39369624 -21 3.3125 C-15.6379868 -3.83685094 -7.56972655 -4.25797119 0 0 Z " fill="#010101" transform="translate(170,291.6875)"/>
<path d="M0 0 C2.97 0 5.94 0 9 0 C9.33 2.97 9.66 5.94 10 9 C10.99 8.67 11.98 8.34 13 8 C17.19987818 7.61112239 19.29607238 7.54091677 22.875 9.875 C25.06741169 12.06741169 25.94440704 12.98976237 26.11352539 16.06298828 C26.10828857 16.89040527 26.10305176 17.71782227 26.09765625 18.5703125 C26.09443359 19.46621094 26.09121094 20.36210937 26.08789062 21.28515625 C26.07951172 22.22230469 26.07113281 23.15945313 26.0625 24.125 C26.05798828 25.06988281 26.05347656 26.01476562 26.04882812 26.98828125 C26.03702375 29.3255477 26.01908799 31.66278169 26 34 C23.03 34 20.06 34 17 34 C16.67 28.39 16.34 22.78 16 17 C14.02 16.67 12.04 16.34 10 16 C9.67 21.94 9.34 27.88 9 34 C6.03 34 3.06 34 0 34 C0 22.78 0 11.56 0 0 Z " fill="#020102" transform="translate(178,288)"/>
<path d="M0 0 C5.90255232 4.89068621 5.90255232 4.89068621 6.5390625 9.18359375 C6.70154595 14.1541103 6.52325387 17.8810758 3.1875 21.8125 C-0.11629467 24.70332033 -2.70334818 25.72879043 -7.125 26.0625 C-12.58192803 25.69253878 -15.52103127 24.23991281 -19.1875 20.1875 C-21.26517558 15.87232763 -21.64747038 12.51869668 -20.8125 7.8125 C-16.51720531 -0.77808939 -8.89522512 -3.75576172 0 0 Z M-11.8125 8.8125 C-12.15740322 12.86511287 -12.11413882 14.36004176 -9.8125 17.8125 C-7.3125 18.22916667 -7.3125 18.22916667 -4.8125 17.8125 C-2.43255632 15.86917668 -2.43255632 15.86917668 -2.5625 12.3125 C-2.43255632 8.75582332 -2.43255632 8.75582332 -4.8125 6.8125 C-8.7799509 6.37780472 -8.7799509 6.37780472 -11.8125 8.8125 Z " fill="#010101" transform="translate(228.8125,297.1875)"/>
<path d="M0 0 C4.77027827 2.43014176 6.54369426 4.67961783 10 9 C4.06 14.94 -1.88 20.88 -8 27 C-16.52848101 19.68987342 -16.52848101 19.68987342 -18 14 C-17.77887578 9.36523629 -16.50732384 6.59610552 -13.5 3.0625 C-9.15081985 -0.52557362 -5.50383595 -0.66825664 0 0 Z " fill="#FBBD5C" transform="translate(255,186)"/>
<path d="M0 0 C16 0 16 0 21 3 C22.5121867 6.02437339 22.17263369 8.66241534 22 12 C21.608125 12.70125 21.21625 13.4025 20.8125 14.125 C20.544375 14.74375 20.27625 15.3625 20 16 C20.97383946 17.68208635 21.97695052 19.34738161 23 21 C23.5 24 23.5 24 23 27 C20.96758425 29.7818436 19.39741838 31.73300431 15.90185547 32.40087891 C13.47374827 32.4920539 11.11499149 32.43607264 8.6875 32.3125 C4.3871875 32.1578125 4.3871875 32.1578125 0 32 C0 21.44 0 10.88 0 0 Z M5 4 C5 7.3 5 10.6 5 14 C10.53069113 14.43933257 10.53069113 14.43933257 15.5 12.5 C15.995 12.005 16.49 11.51 17 11 C16.72965366 8.56282742 16.72965366 8.56282742 16 6 C12.91111478 3.94074319 12.29064073 3.7609626 8.8125 3.875 C7.554375 3.91625 6.29625 3.9575 5 4 Z M5 18 C5 21.3 5 24.6 5 28 C6.588125 28.061875 8.17625 28.12375 9.8125 28.1875 C10.70582031 28.22230469 11.59914063 28.25710938 12.51953125 28.29296875 C15.04183067 28.20262849 15.04183067 28.20262849 16.83203125 26.6484375 C18.26360645 24.98741968 18.26360645 24.98741968 17.875 22.4375 C17.15610832 19.6738389 17.15610832 19.6738389 14 18 C10.97670744 17.7389212 8.04123758 17.91184819 5 18 Z " fill="#020202" transform="translate(272,290)"/>
<path d="M0 0 C1.65 0 3.3 0 5 0 C7.37482656 5.31623611 9.72013426 10.6423155 12 16 C14.10850329 12.83724506 15.28830876 9.86528462 16.625 6.3125 C17.07101562 5.13300781 17.51703125 3.95351563 17.9765625 2.73828125 C18.31429688 1.83464844 18.65203125 0.93101562 19 0 C20.98 0 22.96 0 25 0 C21.67292775 9.02342322 18.24488885 18.00213832 14.6875 26.9375 C14.33816406 27.81954102 13.98882812 28.70158203 13.62890625 29.61035156 C13.30148437 30.42858398 12.9740625 31.24681641 12.63671875 32.08984375 C12.19912231 33.18607056 12.19912231 33.18607056 11.75268555 34.30444336 C11 36 11 36 10 37 C8.33382885 37.04063832 6.66611905 37.042721 5 37 C5.45840043 34.32599748 5.95864871 32.08729716 7.125 29.625 C9.24851688 23.25444937 5.99314562 17.04954433 3.4375 11.25 C2.78555917 9.75729791 2.13821463 8.26257762 1.49609375 6.765625 C1.20919678 6.11368164 0.9222998 5.46173828 0.62670898 4.79003906 C0 3 0 3 0 0 Z " fill="#020202" transform="translate(328,297)"/>
<path d="M0 0 C1.65 0 3.3 0 5 0 C5.04898437 1.27617187 5.09796875 2.55234375 5.1484375 3.8671875 C5.22346191 5.53648072 5.29900988 7.20575046 5.375 8.875 C5.4059375 9.71675781 5.436875 10.55851562 5.46875 11.42578125 C5.50742187 12.23144531 5.54609375 13.03710938 5.5859375 13.8671875 C5.6173584 14.61081543 5.6487793 15.35444336 5.68115234 16.12060547 C5.85419551 18.24010974 5.85419551 18.24010974 8 20 C10.68839385 20.26991906 13.29141936 20.08737357 16 20 C16.98142381 15.75266168 17.30920379 11.52675467 17.5625 7.1875 C17.60568359 6.49462891 17.64886719 5.80175781 17.69335938 5.08789062 C17.79861453 3.39211314 17.89972863 1.69607948 18 0 C19.65 0 21.3 0 23 0 C23 8.25 23 16.5 23 25 C20.66666667 25 18.33333333 25 16 25 C15.34386719 25.10699219 14.68773437 25.21398437 14.01171875 25.32421875 C7.72214369 26.30729519 7.72214369 26.30729519 4.0625 24.75 C1.63125326 22.68712398 0.11198682 21.07350811 -0.22705078 17.82348633 C-0.21134033 16.59021606 -0.21134033 16.59021606 -0.1953125 15.33203125 C-0.18564453 13.99301758 -0.18564453 13.99301758 -0.17578125 12.62695312 C-0.15902344 11.69818359 -0.14226562 10.76941406 -0.125 9.8125 C-0.11597656 8.87212891 -0.10695313 7.93175781 -0.09765625 6.96289062 C-0.07409056 4.64167032 -0.04119116 2.32096356 0 0 Z " fill="#010101" transform="translate(301,297)"/>
<path d="M0 0 C0.66 0.33 1.32 0.66 2 1 C1 3 1 3 -0.875 3.6875 C-4.07652967 5.66491539 -5.00108049 8.51241072 -6 12 C-6.42937042 15.57200702 -6.43761196 19.11396237 -6.43237305 22.70874023 C-6.4425647 23.76314804 -6.45275635 24.81755585 -6.46325684 25.90391541 C-6.49333365 29.37219595 -6.50264491 32.84020004 -6.51171875 36.30859375 C-6.52856932 38.71998509 -6.54672007 41.13136766 -6.56611633 43.54273987 C-6.61358106 49.8769151 -6.64341347 56.21105479 -6.66955566 62.54534912 C-6.6993788 69.01402809 -6.74590318 75.48258466 -6.79101562 81.95117188 C-6.87700874 94.63404798 -6.94493944 107.31695381 -7 120 C-9.4196549 117.5803451 -9.25333008 117.00860927 -9.26742554 113.69976807 C-9.28022049 112.34555756 -9.28022049 112.34555756 -9.29327393 110.96398926 C-9.29236755 109.97072632 -9.29146118 108.97746338 -9.29052734 107.95410156 C-9.30060318 106.38804169 -9.30060318 106.38804169 -9.31088257 104.79034424 C-9.32994809 101.3237233 -9.33379141 97.85729517 -9.3359375 94.390625 C-9.34236066 91.98646972 -9.34908865 89.58231523 -9.35610962 87.17816162 C-9.36810463 82.13080025 -9.37178827 77.08350743 -9.37060547 72.03613281 C-9.37040243 65.56841315 -9.39767998 59.10113363 -9.43214989 52.63351822 C-9.45439168 47.66467268 -9.4584438 42.69593338 -9.45738602 37.72704315 C-9.45974702 35.34281653 -9.46859849 32.9585872 -9.48405075 30.57440948 C-9.50365019 27.2371193 -9.49789515 23.90078216 -9.48583984 20.56347656 C-9.49707886 19.57831055 -9.50831787 18.59314453 -9.51989746 17.578125 C-9.46751298 11.87016613 -8.87055118 8.49719294 -5 4 C-2.25 1.625 -2.25 1.625 0 0 Z " fill="#F0BF76" transform="translate(190,138)"/>
<path d="M0 0 C1.9375 1.375 1.9375 1.375 3 3 C3 3.66 3 4.32 3 5 C-0.3 4.67 -3.6 4.34 -7 4 C-7 5.98 -7 7.96 -7 10 C-5.34385343 10.38218767 -3.67542976 10.71395102 -2 11 C-1.67 10.67 -1.34 10.34 -1 10 C-2.32 9.67 -3.64 9.34 -5 9 C-5 8.01 -5 7.02 -5 6 C-2.36 6 0.28 6 3 6 C3.36213469 10.46632783 3.36213469 10.46632783 1.8125 12.75 C-0.55650431 14.38379608 -2.1160423 14.86266868 -5 15 C-9.59701493 12.80597015 -9.59701493 12.80597015 -11 10 C-11.38503376 6.45768939 -11.41935959 4.63742658 -9.4375 1.625 C-6.1005787 -0.5996142 -3.93094707 -0.50030235 0 0 Z " fill="#454545" transform="translate(307,343)"/>
<path d="M0 0 C0.99 0 1.98 0 3 0 C3 4.95 3 9.9 3 15 C-4.23602484 16.44720497 -4.23602484 16.44720497 -7.5625 14.5 C-9.58038738 10.99063064 -9.01246398 8.83289936 -8 5 C-5.29120665 3.64560332 -2.99066732 3.93498549 0 4 C0 2.68 0 1.36 0 0 Z M-4 6 C-4.66 6.66 -5.32 7.32 -6 8 C-5.67958603 10.60280568 -5.67958603 10.60280568 -5 13 C-3.35 12.67 -1.7 12.34 0 12 C-0.33 10.35 -0.66 8.7 -1 7 C-1.99 6.67 -2.98 6.34 -4 6 Z " fill="#434443" transform="translate(351,342)"/>
<path d="M0 0 C3.0625 0.375 3.0625 0.375 5 2 C6.43754343 5.21333238 6.07623739 7.04414856 5.0625 10.375 C2.0625 12.375 2.0625 12.375 -1 12.25 C-3.9375 11.375 -3.9375 11.375 -5.375 9.625 C-6.07309424 6.83262305 -5.80045281 5.10768391 -4.9375 2.375 C-2.9375 0.375 -2.9375 0.375 0 0 Z M-0.9375 2.375 C-1.2675 3.035 -1.5975 3.695 -1.9375 4.375 C-0.6175 4.045 0.7025 3.715 2.0625 3.375 C1.0725 3.045 0.0825 2.715 -0.9375 2.375 Z M-1.9375 7.375 C-1.9375 8.035 -1.9375 8.695 -1.9375 9.375 C-0.2875 9.045 1.3625 8.715 3.0625 8.375 C3.0625 8.045 3.0625 7.715 3.0625 7.375 C1.4125 7.375 -0.2375 7.375 -1.9375 7.375 Z " fill="#434443" transform="translate(237.9375,345.625)"/>
<path d="M0 0 C3.5 0.25 3.5 0.25 5.5 2.25 C5.875 5.6875 5.875 5.6875 5.5 9.25 C3.8125 11.25 3.8125 11.25 1.5 12.25 C-1.87036311 12.00925978 -3.08798021 11.66201979 -5.5 9.25 C-5.75 5.75 -5.75 5.75 -5.5 2.25 C-3.5 0.25 -3.5 0.25 0 0 Z M-0.5 2.25 C-1.16 2.91 -1.82 3.57 -2.5 4.25 C-0.85 4.25 0.8 4.25 2.5 4.25 C2.17 3.59 1.84 2.93 1.5 2.25 C0.84 2.25 0.18 2.25 -0.5 2.25 Z M-2.5 7.25 C-2.17 7.91 -1.84 8.57 -1.5 9.25 C-0.18 8.92 1.14 8.59 2.5 8.25 C2.5 7.92 2.5 7.59 2.5 7.25 C0.85 7.25 -0.8 7.25 -2.5 7.25 Z " fill="#434343" transform="translate(214.5,345.75)"/>
<path d="M0 0 C1.32 0.33 2.64 0.66 4 1 C5.265625 3.43359375 5.265625 3.43359375 6.25 6.4375 C6.58515625 7.42621094 6.9203125 8.41492188 7.265625 9.43359375 C8 12 8 12 8 14 C7.01 14 6.02 14 5 14 C4.67 13.34 4.34 12.68 4 12 C1.47266765 11.34444881 1.47266765 11.34444881 -1 11 C-1 11.99 -1 12.98 -1 14 C-2.32 13.67 -3.64 13.34 -5 13 C-3.35 8.71 -1.7 4.42 0 0 Z M1 5 C0.67 6.32 0.34 7.64 0 9 C0.99 9 1.98 9 3 9 C2.67 7.68 2.34 6.36 2 5 C1.67 5 1.34 5 1 5 Z " fill="#454545" transform="translate(264,343)"/>
<path d="M0 0 C1.32 0.33 2.64 0.66 4 1 C5.265625 3.43359375 5.265625 3.43359375 6.25 6.4375 C6.58515625 7.42621094 6.9203125 8.41492188 7.265625 9.43359375 C8 12 8 12 8 14 C7.01 14 6.02 14 5 14 C4.67 13.34 4.34 12.68 4 12 C1.47266765 11.34444881 1.47266765 11.34444881 -1 11 C-1 11.99 -1 12.98 -1 14 C-2.32 13.67 -3.64 13.34 -5 13 C-3.35 8.71 -1.7 4.42 0 0 Z M1 5 C0.67 6.32 0.34 7.64 0 9 C0.99 9 1.98 9 3 9 C2.67 7.68 2.34 6.36 2 5 C1.67 5 1.34 5 1 5 Z " fill="#3E3F3F" transform="translate(150,343)"/>
<path d="M0 0 C0.99 0 1.98 0 3 0 C3 1.32 3 2.64 3 4 C4.98 4 6.96 4 9 4 C10.19287411 7.87684087 11 10.91621923 11 15 C10.01 15 9.02 15 8 15 C7.67 12.69 7.34 10.38 7 8 C6.01 7.67 5.02 7.34 4 7 C3.67 9.64 3.34 12.28 3 15 C2.01 15 1.02 15 0 15 C0 10.05 0 5.1 0 0 Z " fill="#464646" transform="translate(195,342)"/>
<path d="M0 0 C1.9375 1.0625 1.9375 1.0625 3 3 C2.875 6.5625 2.875 6.5625 2 10 C-1 12 -1 12 -4.0625 11.8125 C-7 11 -7 11 -9 8 C-8.75 4.375 -8.75 4.375 -8 1 C-5.20129973 -0.39935013 -3.09501208 -0.25265405 0 0 Z M-4 2 C-4.66 2.66 -5.32 3.32 -6 4 C-5.67958603 6.60280568 -5.67958603 6.60280568 -5 9 C-3.68 9 -2.36 9 -1 9 C-0.67 7.35 -0.34 5.7 0 4 C-1.32 3.34 -2.64 2.68 -4 2 Z " fill="#454646" transform="translate(322,346)"/>
<path d="M0 0 C3.5 0.25 3.5 0.25 5.5 2.25 C5.875 5.6875 5.875 5.6875 5.5 9.25 C3.8125 11.25 3.8125 11.25 1.5 12.25 C-1.87036311 12.00925978 -3.08798021 11.66201979 -5.5 9.25 C-5.75 5.75 -5.75 5.75 -5.5 2.25 C-3.5 0.25 -3.5 0.25 0 0 Z M-1.5 2.25 C-2.16 3.57 -2.82 4.89 -3.5 6.25 C-2.51 7.735 -2.51 7.735 -1.5 9.25 C-0.18 8.92 1.14 8.59 2.5 8.25 C2.5 6.6 2.5 4.95 2.5 3.25 C1.18 2.92 -0.14 2.59 -1.5 2.25 Z " fill="#434343" transform="translate(333.5,345.75)"/>
<path d="M0 0 C3.3 0 6.6 0 10 0 C10 0.66 10 1.32 10 2 C8.68 2 7.36 2 6 2 C6 5.96 6 9.92 6 14 C5.01 14 4.02 14 3 14 C3 10.04 3 6.08 3 2 C2.01 2 1.02 2 0 2 C0 1.34 0 0.68 0 0 Z " fill="#4B4B4B" transform="translate(182,343)"/>
<path d="M0 0 C0.99 0 1.98 0 3 0 C3 4.95 3 9.9 3 15 C2.01 15 1.02 15 0 15 C0 10.05 0 5.1 0 0 Z " fill="#4E4E4D" transform="translate(282,342)"/>
<path d="M0 0 C0.99 0 1.98 0 3 0 C3 4.95 3 9.9 3 15 C2.01 15 1.02 15 0 15 C0 10.05 0 5.1 0 0 Z " fill="#454646" transform="translate(168,342)"/>
<path d="M0 0 C0.99 0.66 1.98 1.32 3 2 C2.626751 5.23482466 1.76091331 6.26299536 -0.5 8.75 C-4.02624374 12.73353759 -4 16.79084935 -4 22 C-4.66 22 -5.32 22 -6 22 C-6.10251672 16.87416389 -6.03590199 12.05002222 -5 7 C-3.68 7 -2.36 7 -1 7 C-1 6.34 -1 5.68 -1 5 C-0.34 5 0.32 5 1 5 C0.67 3.35 0.34 1.7 0 0 Z " fill="#F3BE74" transform="translate(235,218)"/>
<path d="M0 0 C0.99 0 1.98 0 3 0 C2.814375 0.5775 2.62875 1.155 2.4375 1.75 C1.94286226 4.29385125 2.36060616 5.51346839 3 8 C3.03888349 10.33300933 3.0448635 12.66709801 3 15 C2.01 15 1.02 15 0 15 C0 10.05 0 5.1 0 0 Z " fill="#4F4F4F" transform="translate(195,342)"/>
<path d="M0 0 C2.20914 3.31371 2.22481553 4.3446021 2.125 8.1875 C2.10695313 9.08855469 2.08890625 9.98960937 2.0703125 10.91796875 C2.03550781 11.94857422 2.03550781 11.94857422 2 13 C-0.64 13.33 -3.28 13.66 -6 14 C-6 13.34 -6 12.68 -6 12 C-4.02 11.34 -2.04 10.68 0 10 C-0.2784375 8.63875 -0.2784375 8.63875 -0.5625 7.25 C-0.95734621 4.31685676 -0.94691572 2.7355343 0 0 Z " fill="#4A4A4A" transform="translate(352,344)"/>
<path d="M0 0 C1.98 0 3.96 0 6 0 C5.67 0.99 5.34 1.98 5 3 C4.34 3 3.68 3 3 3 C2.67 5.64 2.34 8.28 2 11 C1.34 11 0.68 11 0 11 C0 7.37 0 3.74 0 0 Z " fill="#424444" transform="translate(224,346)"/>
<path d="M0 0 C1.98 0 3.96 0 6 0 C6.33 0.99 6.66 1.98 7 3 C6.2575 2.979375 5.515 2.95875 4.75 2.9375 C2.29537721 2.99328688 0.33890739 3.3069904 -2 4 C-1.34 2.68 -0.68 1.36 0 0 Z M-3 4 C-1.68 5.65 -0.36 7.3 1 9 C0.01 9.33 -0.98 9.66 -2 10 C-2.33 8.02 -2.66 6.04 -3 4 Z " fill="#484A49" transform="translate(235,346)"/>
<path d="M0 0 C0.66 0 1.32 0 2 0 C2 4.95 2 9.9 2 15 C1.34 15 0.68 15 0 15 C0 10.05 0 5.1 0 0 Z " fill="#494948" transform="translate(276,342)"/>
<path d="M0 0 C0.66 0 1.32 0 2 0 C2 4.95 2 9.9 2 15 C1.34 15 0.68 15 0 15 C0 10.05 0 5.1 0 0 Z " fill="#444444" transform="translate(162,342)"/>
<path d="M0 0 C0.99 0.66 1.98 1.32 3 2 C2.67 3.32 2.34 4.64 2 6 C-3.75 7.125 -3.75 7.125 -6 6 C-6 5.34 -6 4.68 -6 4 C-4.02 3.67 -2.04 3.34 0 3 C0 2.01 0 1.02 0 0 Z " fill="#3B3C3C" transform="translate(240,351)"/>
<path d="M0 0 C-1.2065625 0.61875 -1.2065625 0.61875 -2.4375 1.25 C-5.05723545 2.73446502 -5.05723545 2.73446502 -5.9375 4.875 C-6.0186359 7.63362072 -5.16754401 9.52755385 -4 12 C-4.99 11.67 -5.98 11.34 -7 11 C-8.1577506 7.52674819 -8.06866652 4.63932552 -8 1 C-4.93251126 -0.86240388 -3.40254489 -1.2151946 0 0 Z " fill="#F2C073" transform="translate(205,154)"/>
<path d="M0 0 C1.65 1.65 3.3 3.3 5 5 C3.35 6.32 1.7 7.64 0 9 C-0.84454356 5.62182575 -1.10844919 3.32534757 0 0 Z " fill="#F5BB6A" transform="translate(260,190)"/>
<path d="M0 0 C0.99 0.33 1.98 0.66 3 1 C2.67 1.99 2.34 2.98 2 4 C-0.8125 4.6875 -0.8125 4.6875 -4 5 C-5.875 3.5625 -5.875 3.5625 -7 2 C-3.86650268 0.95550089 -3.01031744 1.06576355 0 2 C0 1.34 0 0.68 0 0 Z " fill="#3F3F3F" transform="translate(321,353)"/>
<path d="M0 0 C0.66 0.33 1.32 0.66 2 1 C2.59355614 3.64860427 2.74209269 6.29197322 3 9 C2.01 9 1.02 9 0 9 C-1 8 -1 8 -1.125 4.5 C-1 1 -1 1 0 0 Z " fill="#4C4C4C" transform="translate(210,347)"/>
<path d="M0 0 C2.64 0 5.28 0 8 0 C7.34 1.32 6.68 2.64 6 4 C3.03 3.505 3.03 3.505 0 3 C0 2.01 0 1.02 0 0 Z " fill="#4E4E4E" transform="translate(302,349)"/>
<path d="M0 0 C2.475 0.495 2.475 0.495 5 1 C5.33 3.31 5.66 5.62 6 8 C5.01 8 4.02 8 3 8 C2.690625 7.05125 2.38125 6.1025 2.0625 5.125 C1.12605258 2.13919592 1.12605258 2.13919592 0 0 Z " fill="#F6C06F" transform="translate(206,154)"/>
<path d="M0 0 C0.66 0.33 1.32 0.66 2 1 C-0.97 3.97 -3.94 6.94 -7 10 C-7.66 9.34 -8.32 8.68 -9 8 C-7.71034824 6.62437146 -6.37310707 5.29233607 -5 4 C-4.34 4 -3.68 4 -3 4 C-2.67 3.01 -2.34 2.02 -2 1 C-1.34 0.67 -0.68 0.34 0 0 Z " fill="#EBBE75" transform="translate(254,203)"/>
<path d="M0 0 C2.375 0.6875 2.375 0.6875 5 2 C6.3125 4.625 6.3125 4.625 7 7 C4.13302508 5.71480435 2.02392288 4.42870746 0 2 C0 1.34 0 0.68 0 0 Z " fill="#F5BD69" transform="translate(239,204)"/>
<path d="M0 0 C0.99 0.33 1.98 0.66 3 1 C3.33 2.65 3.66 4.3 4 6 C3.01 6 2.02 6 1 6 C-0.0625 4.125 -0.0625 4.125 -1 2 C-0.67 1.34 -0.34 0.68 0 0 Z " fill="#484848" transform="translate(268,351)"/>
<path d="M0 0 C0.99 0 1.98 0 3 0 C3 1.98 3 3.96 3 6 C2.01 5.67 1.02 5.34 0 5 C0 3.35 0 1.7 0 0 Z " fill="#4D4E4D" transform="translate(313,349)"/>
<path d="M0 0 C0.99 0.33 1.98 0.66 3 1 C2.67 2.32 2.34 3.64 2 5 C0.68 4.67 -0.64 4.34 -2 4 C-2 3.01 -2 2.02 -2 1 C-1.34 0.67 -0.68 0.34 0 0 Z " fill="#FCC44C" transform="translate(246,186)"/>
<path d="M0 0 C0.99 0 1.98 0 3 0 C2.34 1.98 1.68 3.96 1 6 C0.34 6 -0.32 6 -1 6 C-0.67 4.02 -0.34 2.04 0 0 Z " fill="#424242" transform="translate(247,354)"/>
</svg>
